<?xml version="1.0" encoding="utf-8"?>
<!-- Generator: Adobe Illustrator 23.0.1, SVG Export Plug-In . SVG Version: 6.00 Build 0)  -->
<svg version="1.1" id="圖層_1" xmlns="http://www.w3.org/2000/svg" xmlns:xlink="http://www.w3.org/1999/xlink" x="0px" y="0px"
	 viewBox="0 0 50 50" style="enable-background:new 0 0 50 50;" xml:space="preserve">
<style type="text/css">
	.st0{fill:#FFFFFF;}
</style>
<path class="st0" d="M49.5,21.6c0-11-11-19.9-24.5-19.9S0.5,10.6,0.5,21.6c0,9.8,8.7,18.1,20.5,19.6c0.8,0.2,1.9,0.5,2.2,1.2
	c0.2,0.7,0.2,1.4,0,2.1l-0.4,2.1c-0.1,0.6-0.5,2.4,2.1,1.3s14.1-8.3,19.3-14.3l0,0C47.8,29.9,49.5,25.9,49.5,21.6z M16.3,27.4
	c0,0.3-0.2,0.5-0.5,0.5c0,0,0,0,0,0H9c-0.1,0-0.2-0.1-0.3-0.1l0,0c-0.1-0.1-0.1-0.2-0.1-0.3l0,0V16.7c0-0.3,0.2-0.5,0.5-0.5h1.7
	c0.3,0,0.5,0.2,0.5,0.5c0,0,0,0,0,0v8.5h4.7c0.3,0,0.5,0.2,0.5,0.5c0,0,0,0,0,0L16.3,27.4z M20.5,27.4c0,0.3-0.2,0.5-0.5,0.5
	c0,0,0,0,0,0h-1.7c-0.3,0-0.5-0.2-0.5-0.5V16.7c0-0.3,0.2-0.5,0.5-0.5H20c0.3,0,0.5,0.2,0.5,0.5c0,0,0,0,0,0L20.5,27.4z M32.3,27.4
	c0,0.3-0.2,0.5-0.5,0.5h-1.7H30h-0.1c0,0-0.1-0.1-0.1-0.1l-4.9-6.6v6.4c0,0.3-0.2,0.5-0.5,0.5c0,0,0,0,0,0h-1.7
	c-0.3,0-0.5-0.2-0.5-0.5V16.7c0-0.3,0.2-0.5,0.5-0.5h2l0,0l0,0l0,0l0,0l0,0l0,0v0l4.9,6.6v-6.4c0-0.3,0.2-0.5,0.5-0.5h1.7
	c0.3,0,0.5,0.2,0.5,0.5L32.3,27.4z M41.8,18.4c0,0.3-0.2,0.5-0.5,0.5c0,0,0,0,0,0h-4.7v1.8h4.7c0.3,0,0.5,0.2,0.5,0.5l0,0v1.7
	c0,0.3-0.2,0.5-0.5,0.5c0,0,0,0,0,0h-4.7v1.8h4.7c0.3,0,0.5,0.2,0.5,0.5c0,0,0,0,0,0v1.7c0,0.3-0.2,0.5-0.5,0.5h-6.9
	c-0.1,0-0.2-0.1-0.3-0.1l0,0c-0.1-0.1-0.1-0.2-0.1-0.3l0,0V16.7l0,0c0-0.1,0-0.2,0.1-0.3l0,0c0.1-0.1,0.2-0.1,0.3-0.1h6.9
	c0.3,0,0.5,0.2,0.5,0.5V18.4z"/>
</svg>
