<?xml version="1.0" encoding="utf-8"?>
<!-- Generator: Adobe Illustrator 23.1.1, SVG Export Plug-In . SVG Version: 6.00 Build 0)  -->
<svg version="1.1" id="圖層_1" xmlns="http://www.w3.org/2000/svg" xmlns:xlink="http://www.w3.org/1999/xlink" x="0px" y="0px"
	 viewBox="0 0 30 50" style="enable-background:new 0 0 30 50;" xml:space="preserve">
<style type="text/css">
	.st0{fill:#FFFFFF;}
</style>
<path class="st0" d="M4.7,26.7h4.7v19.4c0,0.4,0.3,0.7,0.7,0.7h8c0.4,0,0.7-0.3,0.7-0.7V26.8h5.4c0.4,0,0.6-0.3,0.7-0.6l0.8-7.1
	c0-0.2,0-0.4-0.2-0.5c-0.1-0.1-0.3-0.2-0.5-0.2h-6.2v-4.5c0-1.4,0.7-2,2.2-2c0.2,0,4.1,0,4.1,0c0.4,0,0.7-0.3,0.7-0.7V4.4
	c0-0.4-0.3-0.7-0.7-0.7h-5.6c0,0-0.1,0-0.3,0c-1,0-4.4,0.2-7.1,2.7c-3,2.7-2.6,6-2.5,6.6v5.2h-5c-0.4,0-0.7,0.3-0.7,0.7V26
	C4,26.4,4.3,26.7,4.7,26.7z"/>
</svg>
