<?xml version="1.0" encoding="utf-8"?>
<!-- Generator: Adobe Illustrator 23.0.1, SVG Export Plug-In . SVG Version: 6.00 Build 0)  -->
<svg version="1.1" id="圖層_1" xmlns="http://www.w3.org/2000/svg" xmlns:xlink="http://www.w3.org/1999/xlink" x="0px" y="0px"
	 viewBox="0 0 340.2 68" style="enable-background:new 0 0 340.2 68;" xml:space="preserve">
<style type="text/css">
	.st0{fill-rule:evenodd;clip-rule:evenodd;fill:#000F9F;}
	.st1{fill:#000F9F;}
</style>
<title>logo</title>
<path class="st0" d="M74.6,17.7l-8.1,41.7H56.2l1.8-9.7c-5.6,7.1-11.6,10.7-18,10.7c-2.6,0.2-5.2-0.7-7.2-2.3
	c-1.8-1.6-2.7-3.9-2.6-6.3c0.1-2.3,0.4-4.6,0.9-6.9l5.3-27.2h10.2l-4.9,25.1c-0.4,1.8-0.7,3.7-0.8,5.6c0,3.1,1.6,4.6,4.7,4.6
	c3.3,0,6.4-1.8,9.4-5.4c3.2-4.1,5.3-8.9,6.2-14l3.1-15.8L74.6,17.7z"/>
<path class="st0" d="M107.2,17.7l-1,5.6H95.7l-4,20.2c-0.5,2.1-0.8,4.2-0.9,6.3c0,2.7,1.3,4,4,4c2-0.1,4-0.5,5.8-1.2l0.6,5.4
	c-3.5,1.5-7.2,2.3-11,2.4c-6.7,0-10.1-2.7-10.1-8.1c0.3-2.7,0.7-5.4,1.3-8l4-21h-5.3l1.1-5.6h5.5l1.9-10.1l10.6-2.5l-2.4,12.6
	L107.2,17.7z"/>
<path class="st0" d="M193.6,19.9l-5,7.5c-1.3-0.5-2.8-0.8-4.2-0.8c-3.2,0-6.1,1.7-7.7,4.3c-1.6,2.4-2.9,6.1-3.9,11l-3.4,17.5h-10.3
	l8-41.7h10.4l-1.6,7.9l3.3-4.1c2.6-3.2,5.2-4.9,7.7-4.9C189.2,16.7,191.4,17.7,193.6,19.9"/>
<path class="st0" d="M221.6,36.2c-1.2-9.2-1.9-16.9-2.2-23.2c-3.1,6.4-7.1,14.1-12.1,23.2H221.6z M235.5,59.4h-11.2l-1.9-16h-18.7
	l-8.9,16h-10.1L218.4,1h8L235.5,59.4z"/>
<path class="st0" d="M272.8,41.3c0.2-3.1-1.3-6-3.9-7.7c-1.4-0.9-3.9-1.3-7.5-1.3h-4.2l-3.9,20.4h3.9c5.4,0,9.3-0.9,11.6-2.8
	C271.5,47.9,272.9,44.7,272.8,41.3 M275.3,15c0-3.5-1.3-5.6-3.8-6.5c-2-0.5-4-0.7-6.1-0.6h-3.5l-3.3,17.6h3c4.4,0,7.8-0.9,10.2-2.8
	C274.2,20.9,275.5,18,275.3,15 M286.2,13.5c0,7.5-4.8,12.5-14.5,14.9c4.1,0.6,7.1,2,9.2,4.3c2.3,2.5,3.5,5.7,3.4,9.1
	c0,3.1-1,6.2-2.8,8.8c-1.9,2.7-4.5,4.9-7.6,6.3c-3.8,1.8-9.7,2.7-17.7,2.7H241L252.3,1h14.4c3.8,0,6.3,0.1,7.5,0.2
	c2.5,0.2,4.8,1.1,6.9,2.4C284.4,5.8,286.3,9.5,286.2,13.5"/>
<path class="st1" d="M153.2,31.5c-1.4-0.2-2.7,0.2-3.8,1.1c-0.4-4-2.1-7.8-4.9-10.7c-3.3-3.5-7.9-5.5-12.7-5.3
	c-6.6-0.1-12.9,2.5-17.5,7.3c-4.7,4.5-7.3,10.8-7.2,17.4c-0.2,5.1,1.7,10.1,5.2,13.8c3.6,3.6,8.5,5.5,13.5,5.4
	c6.4,0.1,12.5-2.6,16.8-7.3c1.9-1.9,3.4-4.1,4.6-6.5c0.3,0.4,0.6,0.8,1,1.1c-2.8,8.1-9.6,14.1-18,16c-1.8-1.1-3.9-1.6-6.1-1.5
	c-3.8,0-6.9,1.3-6.9,2.9s3.1,2.9,6.8,2.9s6.9-1.3,6.9-2.9c0,0,0,0,0,0c8.6-2.1,15.5-8.3,18.6-16.6c0.2,0.1,0.4,0.1,0.6,0.2
	c2.6,0.5,5.2-1.6,5.7-4.5l1.1-6.4C157.5,34.8,155.8,32,153.2,31.5z M133.6,50.6c-2.2,2.6-4.6,3.8-7.3,3.8c-5.5,0-8.3-4.1-8.3-12.4
	c-0.1-4.8,1.2-9.5,3.7-13.6c2.5-3.9,5.4-5.8,8.8-5.8c5.3,0,8,3.9,8,11.7C138.6,41.2,136.9,46.7,133.6,50.6L133.6,50.6z"/>
<path class="st0" d="M340.2,4.5l-4.4,6.1c-3.3-1.5-7-2.3-10.6-2.3c-7,0-12.7,2.3-17.2,6.8c-4.4,4.6-6.6,10.3-6.5,17.2
	c0,6,1.7,10.8,5.1,14.4s8,5.4,13.8,5.4c3.5,0,7-0.7,10.3-1.8l2.4,7.2c-4.8,1.9-9.9,2.9-15.1,2.9c-7.7,0-14.2-2.2-19.3-6.6
	c-6-5.1-9-12-9-20.7c-0.2-8.9,3.5-17.5,10.1-23.5c6.8-6.4,15-9.6,24.8-9.6C330-0.1,335.5,1.5,340.2,4.5"/>
<polygon class="st1" points="1.4,1 0,8.2 16.7,8.2 6.9,59.4 17.9,59.4 27.8,8.2 47.7,8.2 48.4,4.6 49.1,1 "/>
</svg>
